Motion_pl17
version=1
nRows=6
nColumns=43
inDegrees=yes
endheader
time	pelvis_tilt	pelvis_list	pelvis_rotation	pelvis_tx	pelvis_ty	pelvis_tz	hip_flexion_r	hip_adduction_r	hip_rotation_r	knee_angle_r	ankle_angle_r	subtalar_angle_r	mtp_angle_r	hip_flexion_l	hip_adduction_l	hip_rotation_l	knee_angle_l	ankle_angle_l	subtalar_angle_l	mtp_angle_l	lumbar_extension	lumbar_bending	lumbar_rotation	neck_flexion	neck_lateral_bending	neck_rotation	arm_flex_r	arm_add_r	arm_rot_r	elbow_flex_r	pro_sup_r	wrist_flex_r	wrist_dev_r	hand_finger_flex_r	arm_flex_l	arm_add_l	arm_rot_l	elbow_flex_l	pro_sup_l	wrist_flex_l	wrist_dev_l	hand_finger_flex_l
      0.00250000	      3.89610138	    -10.75003706	     90.84908165	      0.05392992	      1.95086162	      1.96002549	     65.56488145	      4.02547098	     -2.34492353	    -99.72211489	     24.01378712	     -0.41642571	      6.68744111	     68.50594197	     -7.74361864	      0.71572764	   -105.29676483	     19.34781349	      2.42141230	      7.73131849	    -49.54268423	      3.49553107	      2.42940904	     21.90079764	     -3.59939368	      2.97536168	      1.50885872	    -14.43285266	    -14.96524950	     54.64783449	    112.01487928	     -3.31592448	     -5.03493231	     19.94163367	     -5.70670581	    -15.66315230	    -14.13100658	     58.25775517	    113.45193599	      1.12341045	      0.59978166	     19.61481787
      0.00500000	      3.86949879	    -10.62343684	     90.82040628	      0.05391997	      1.94850976	      1.96001762	     65.73766268	      3.97658353	     -2.37916466	   -100.24446171	     24.11652990	     -0.47051932	      6.71049129	     68.64980847	     -7.73123003	      0.77659445	   -105.78826123	     19.35243280	      2.49009352	      7.77115598	    -49.80620554	      3.45605115	      2.41784165	     21.96037520	     -3.55878816	      2.94381018	      1.64173940	    -14.41816502	    -14.99114778	     54.69870149	    112.02275711	     -3.31010843	     -5.02763952	     19.97470139	     -5.62748157	    -15.70977908	    -14.09438481	     58.21420965	    113.43570889	      1.10886345	      0.63470627	     19.62716263
      0.00750000	      3.85511643	    -10.51386632	     90.80325784	      0.05394334	      1.94607377	      1.96002714	     65.93035501	      3.94394505	     -2.40357247	   -100.76944376	     24.22749116	     -0.52209063	      6.74042179	     68.82636419	     -7.73641955	      0.85427071	   -106.28293856	     19.37471930	      2.57650349	      7.81671789	    -50.05763388	      3.42913690	      2.40732597	     22.05658794	     -3.53071315	      2.92677711	      1.73057624	    -14.41816197	    -15.01138626	     54.82953671	    112.02635785	     -3.28986246	     -5.05372617	     20.02127707	     -5.57683819	    -15.75682841	    -14.07025885	     58.21911183	    113.41000874	      1.09191276	      0.66304689	     19.64198885
      0.01000000	      3.90644724	    -10.58044273	     90.83080142	      0.05399252	      1.94307922	      1.96027952	     66.34348399	      3.94307960	     -2.51442396	   -101.30145599	     24.48270373	     -0.61563046	      6.85330447	     69.27129525	     -7.74586165	      1.02887177	   -106.83006448	     19.49687808	      3.03002491	      8.02907782	    -50.17643091	      3.47037979	      2.45341752	     22.39299818	     -3.49327391	      2.92969933	      1.58184245	    -14.46152825	    -15.09327272	     55.36399760	    112.04467978	     -3.17062481	     -5.19858915	     20.25942541	     -5.68132373	    -15.84911886	    -13.99964710	     58.52857617	    113.25271890	      1.03697928	      0.73916180	     19.72931253
      0.01250000	      3.90828309	    -10.47394581	     90.79976572	      0.05399869	      1.94068914	      1.96027113	     66.53531895	      3.92907392	     -2.53614835	   -101.80655183	     24.52154625	     -0.63638891	      6.87751378	     69.44146901	     -7.75170609	      1.11759299	   -107.31103476	     19.53809646	      3.07505508	      8.06951426	    -50.42348078	      3.44942542	      2.46316508	     22.47390832	     -3.49409856	      2.92649713	      1.73482073	    -14.45890920	    -15.11517234	     55.39065754	    112.04900016	     -3.17009283	     -5.21116372	     20.28693981	     -5.57577911	    -15.86150552	    -14.00226095	     58.45163067	    113.23732265	      1.01184426	      0.77800054	     19.73515269
      0.01500000	      3.91392042	    -10.38139652	     90.77520772	      0.05402738	      1.93819978	      1.96027711	     66.75065331	      3.92544801	     -2.56353727	   -102.32190929	     24.58501306	     -0.66703313	      6.90681044	     69.63789413	     -7.76966276	      1.19625860	   -107.80084229	     19.58960282	      3.13130116	      8.11248961	    -50.66047547	      3.43597658	      2.46378042	     22.58103022	     -3.49228106	      2.92617867	      1.84365897	    -14.46164966	    -15.12994545	     55.51076251	    112.05045179	     -3.16770117	     -5.26025688	     20.32012830	     -5.50525373	    -15.88443443	    -14.01883003	     58.42506090	    113.21514154	      0.99275936	      0.80452463	     19.74592180
